<?xml version="1.0" standalone="no"?>
<!DOCTYPE svg PUBLIC "-//W3C//DTD SVG 20010904//EN"
 "http://www.w3.org/TR/2001/REC-SVG-20010904/DTD/svg10.dtd">
<svg version="1.0" xmlns="http://www.w3.org/2000/svg"
 width="544.000000pt" height="544.000000pt" viewBox="0 0 544.000000 544.000000"
 preserveAspectRatio="xMidYMid meet">
<metadata>
Created by potrace 1.11, written by Peter Selinger 2001-2013
</metadata>
<g transform="translate(0.000000,544.000000) scale(0.100000,-0.100000)"
fill="#000000" stroke="none">
<path d="M954 3206 c-43 -27 -64 -54 -134 -178 -24 -42 -48 -74 -53 -71 -6 3
-7 1 -3 -5 4 -6 -24 -64 -61 -127 -37 -64 -79 -135 -92 -158 -39 -70 -95 -167
-157 -272 -32 -55 -62 -108 -66 -118 -4 -10 -11 -16 -16 -13 -4 2 -8 -3 -8
-12 -1 -9 -4 -24 -8 -33 -10 -23 10 -26 153 -28 190 -3 174 -11 260 142 41 73
91 160 113 194 21 34 38 65 38 67 0 3 23 46 52 96 34 60 54 87 59 78 7 -13
135 -336 192 -485 22 -58 37 -83 52 -87 31 -9 318 -7 332 2 9 6 -40 140 -180
491 -225 566 -205 534 -346 539 -77 3 -90 0 -127 -22z"/>
<path d="M2915 3214 c-27 -8 -58 -16 -67 -17 -9 -1 -16 -6 -15 -12 1 -5 -6 -9
-15 -9 -10 1 -16 -2 -13 -6 3 -4 -12 -23 -33 -42 -93 -84 -159 -317 -160 -565
0 -112 10 -172 41 -246 9 -20 17 -41 19 -45 5 -17 81 -71 116 -84 28 -10 114
-13 342 -13 293 0 307 1 353 22 26 12 49 21 50 20 4 -3 71 75 89 103 27 44 66
173 79 265 7 50 13 158 13 240 1 178 -18 252 -81 319 -72 76 -93 80 -398 83
-221 2 -279 0 -320 -13z m436 -265 c11 -5 17 -14 14 -19 -3 -6 1 -7 9 -4 43
17 62 -164 32 -308 -17 -77 -60 -153 -82 -144 -8 3 -13 2 -10 -3 3 -4 -66 -11
-154 -15 -147 -6 -163 -5 -199 13 -45 24 -61 58 -61 135 0 80 29 237 50 271
24 39 60 72 85 78 40 10 297 7 316 -4z"/>
<path d="M3896 3188 c-3 -18 -7 -62 -10 -98 -5 -62 -12 -137 -56 -565 -10
-104 -22 -223 -26 -262 l-6 -73 170 0 169 0 7 48 c3 26 12 117 21 202 24 261
45 469 60 607 8 73 15 141 15 153 0 19 -5 20 -170 20 l-169 0 -5 -32z"/>
<path d="M4540 3130 c-45 -49 -87 -87 -93 -83 -5 3 -7 2 -4 -4 9 -14 -102
-135 -115 -127 -7 4 -8 2 -4 -4 4 -7 -4 -22 -18 -36 -56 -51 -88 -174 -67
-253 6 -23 43 -88 82 -145 38 -57 98 -145 132 -195 l62 -93 208 0 c114 0 207
3 207 6 0 3 -9 19 -21 35 -11 16 -17 34 -13 40 4 7 3 9 -3 6 -10 -6 -226 316
-260 388 -16 33 -16 35 12 77 48 74 157 198 168 191 6 -4 7 -1 2 6 -4 8 1 22
14 35 11 11 47 53 78 91 88 106 96 115 102 111 3 -2 7 7 7 20 l2 24 -198 0
-198 0 -82 -90z"/>
<path d="M1390 3202 c0 -8 90 -243 140 -362 17 -41 62 -154 100 -250 152 -383
141 -361 190 -387 58 -29 156 -31 216 -4 46 21 73 53 129 155 21 38 49 85 62
105 14 20 29 46 33 58 5 12 32 58 59 102 28 45 51 83 51 87 0 3 25 47 55 98
30 50 55 97 55 103 0 6 3 13 8 15 9 4 162 270 162 282 0 3 -76 6 -169 6 l-169
0 -20 -32 c-11 -18 -31 -53 -44 -78 -14 -25 -50 -88 -80 -140 -30 -52 -72
-126 -93 -165 -106 -193 -98 -183 -114 -137 -7 20 -19 51 -26 67 -7 17 -18 46
-25 65 -7 19 -19 49 -26 65 -43 102 -118 295 -126 323 l-9 32 -179 0 c-99 0
-180 -4 -180 -8z"/>
</g>
</svg>
